<svg width="900" height="520" viewBox="0 0 900 520" fill="none" xmlns="http://www.w3.org/2000/svg">
  <defs>
    <linearGradient id="bg" x1="0" y1="0" x2="900" y2="520" gradientUnits="userSpaceOnUse">
      <stop offset="0%" stop-color="#FFE7BA">
        <animate attributeName="stop-color" values="#FFE7BA;#FFD4E5;#D8F7FF;#FFE7BA" dur="10s" repeatCount="indefinite"/>
      </stop>
      <stop offset="55%" stop-color="#FFD4E5">
        <animate attributeName="stop-color" values="#FFD4E5;#D8F7FF;#FFE7BA;#FFD4E5" dur="10s" repeatCount="indefinite"/>
      </stop>
      <stop offset="100%" stop-color="#D8F7FF">
        <animate attributeName="stop-color" values="#D8F7FF;#FFE7BA;#FFD4E5;#D8F7FF" dur="10s" repeatCount="indefinite"/>
      </stop>
    </linearGradient>
    <linearGradient id="accent" x1="0" y1="0" x2="1" y2="1">
      <stop stop-color="#F97316"/>
      <stop offset="1" stop-color="#3B82F6"/>
    </linearGradient>
  </defs>

  <rect width="900" height="520" rx="22" fill="url(#bg)"/>
  <rect x="36" y="32" width="828" height="54" rx="14" fill="#1E293B"/>
  <circle cx="66" cy="59" r="9" fill="#FF6B6B"/>
  <circle cx="93" cy="59" r="9" fill="#FFD166"/>
  <circle cx="120" cy="59" r="9" fill="#06D6A0"/>
  <rect x="154" y="46" width="290" height="26" rx="8" fill="#334155"/>
  <rect x="154" y="50" width="230" height="18" rx="6" fill="#475569"/>

  <rect x="36" y="112" width="260" height="372" rx="16" fill="#FFFFFF" fill-opacity="0.84"/>
  <rect x="320" y="112" width="544" height="174" rx="16" fill="#FFFFFF" fill-opacity="0.92"/>
  <rect x="320" y="310" width="262" height="174" rx="16" fill="#FFFFFF" fill-opacity="0.92"/>
  <rect x="602" y="310" width="262" height="174" rx="16" fill="#FFFFFF" fill-opacity="0.92"/>

  <g opacity="0.2">
    <rect x="58" y="182" width="216" height="12" rx="6" fill="#64748B"/>
    <rect x="58" y="208" width="180" height="12" rx="6" fill="#64748B"/>
    <rect x="58" y="234" width="196" height="12" rx="6" fill="#64748B"/>
    <rect x="58" y="260" width="140" height="12" rx="6" fill="#64748B"/>
  </g>

  <rect x="334" y="152" width="220" height="12" rx="6" fill="#E2E8F0"/>
  <rect x="334" y="174" width="150" height="10" rx="5" fill="#E2E8F0"/>
  <rect x="334" y="350" width="180" height="10" rx="5" fill="#E2E8F0"/>
  <rect x="616" y="350" width="170" height="10" rx="5" fill="#E2E8F0"/>

  <rect x="328" y="126" width="12" height="152" rx="6" fill="url(#accent)">
    <animate attributeName="x" values="328;596;328" dur="6s" repeatCount="indefinite"/>
    <animate attributeName="opacity" values="0.95;0.5;0.95" dur="6s" repeatCount="indefinite"/>
  </rect>

  <g>
    <rect x="336" y="214" width="132" height="52" rx="12" fill="#EEF2FF"/>
    <text x="350" y="246" fill="#3730A3" font-family="'Trebuchet MS', 'Segoe UI', sans-serif" font-size="18" font-weight="700">
      Register
    </text>
    <animate attributeName="opacity" values="1;1;0;0;0;1;1" dur="9s" repeatCount="indefinite"/>
  </g>
  <g>
    <rect x="492" y="214" width="132" height="52" rx="12" fill="#ECFEFF"/>
    <text x="524" y="246" fill="#0F766E" font-family="'Trebuchet MS', 'Segoe UI', sans-serif" font-size="18" font-weight="700">
      Dashboard
    </text>
    <animate attributeName="opacity" values="0;0;1;1;0;0;0" dur="9s" repeatCount="indefinite"/>
  </g>
  <g>
    <rect x="648" y="214" width="178" height="52" rx="12" fill="#FFF7ED"/>
    <text x="668" y="246" fill="#C2410C" font-family="'Trebuchet MS', 'Segoe UI', sans-serif" font-size="18" font-weight="700">
      Course Details
    </text>
    <animate attributeName="opacity" values="0;0;0;0;1;1;0" dur="9s" repeatCount="indefinite"/>
  </g>

  <g>
    <rect x="336" y="376" width="232" height="86" rx="12" fill="#F8FAFC"/>
    <text x="354" y="408" fill="#0F172A" font-family="'Trebuchet MS', 'Segoe UI', sans-serif" font-size="20" font-weight="700">
      Course Card
    </text>
    <rect x="354" y="424" width="184" height="10" rx="5" fill="#E2E8F0"/>
  </g>

  <g>
    <rect x="618" y="376" width="232" height="86" rx="12" fill="#F8FAFC"/>
    <text x="636" y="408" fill="#0F172A" font-family="'Trebuchet MS', 'Segoe UI', sans-serif" font-size="20" font-weight="700">
      Admin Snapshot
    </text>
    <rect x="636" y="424" width="176" height="10" rx="5" fill="#E2E8F0"/>
  </g>

  <text x="60" y="157" fill="#0F172A" font-family="'Trebuchet MS', 'Segoe UI', sans-serif" font-size="24" font-weight="700">
    Navigation
  </text>
  <text x="344" y="157" fill="#0F172A" font-family="'Trebuchet MS', 'Segoe UI', sans-serif" font-size="30" font-weight="700">
    Web Flow Animation
  </text>
</svg>
